<svg id="instagram-logo" xmlns="http://www.w3.org/2000/svg" width="51.38" height="51.381" viewBox="0 0 51.38 51.381">
  <g id="Group_38" data-name="Group 38">
    <g id="Group_37" data-name="Group 37">
      <path id="Path_222" data-name="Path 222" d="M25,30.142A5.135,5.135,0,1,0,19.857,25,5.151,5.151,0,0,0,25,30.142Z" transform="translate(0.691 0.691)" fill="#bd8880"/>
      <path id="Path_223" data-name="Path 223" d="M35.845,18.913V13.96l-.645,0-4.309.013.017,4.954Z" transform="translate(1.075 0.486)" fill="#bd8880"/>
      <path id="Path_224" data-name="Path 224" d="M25.69,0A25.691,25.691,0,1,0,51.38,25.691,25.72,25.72,0,0,0,25.69,0ZM40.3,22.693V34.655A5.653,5.653,0,0,1,34.654,40.3H16.727a5.652,5.652,0,0,1-5.647-5.648V16.728a5.652,5.652,0,0,1,5.647-5.647H34.653A5.653,5.653,0,0,1,40.3,16.728Z" fill="#bd8880"/>
      <path id="Path_225" data-name="Path 225" d="M33.214,24.927a7.991,7.991,0,1,1-15.395-3H13.457V33.892a2.8,2.8,0,0,0,2.8,2.8H34.183a2.8,2.8,0,0,0,2.8-2.8V21.929H32.62A7.882,7.882,0,0,1,33.214,24.927Z" transform="translate(0.468 0.764)" fill="#bd8880"/>
    </g>
  </g>
</svg>
