<svg xmlns="http://www.w3.org/2000/svg" width="123.001" height="125.785" viewBox="0 0 123.001 125.785">
  <g id="Group_139" data-name="Group 139" transform="translate(-877.47 -350.896)">
    <g id="Group_2" data-name="Group 2" transform="matrix(-0.972, -0.235, 0.235, -0.972, 978.49, 476.681)">
      <path id="Path_1" data-name="Path 1" d="M43.466,1.084A56.779,56.779,0,0,0,.026,40.474a.609.609,0,1,0,1.166.352,55.656,55.656,0,0,1,101.6-11.585.609.609,0,0,0,1.058-.6A56.8,56.8,0,0,0,43.466,1.084Z" transform="translate(0 0)" fill="#cbc3c2" fill-rule="evenodd"/>
    </g>
    <g id="Group_3" data-name="Group 3" transform="matrix(-0.972, -0.235, 0.235, -0.972, 975.423, 471.732)">
      <path id="Path_2" data-name="Path 2" d="M50.611,0A52.761,52.761,0,0,0,0,36.519l.386.126A52.543,52.543,0,0,1,95.6,26.265l.35-.207A53.235,53.235,0,0,0,50.611,0Z" transform="translate(0 0)" fill="#cbc3c2" fill-rule="evenodd"/>
    </g>
    <g id="Group_4" data-name="Group 4" transform="matrix(0.972, -0.235, 0.235, 0.972, 889.76, 436.576)">
      <path id="Path_3" data-name="Path 3" d="M43.466,40.175A56.779,56.779,0,0,1,.026.785.609.609,0,1,1,1.192.433,55.565,55.565,0,0,0,43.7,38.98a55.593,55.593,0,0,0,59.087-26.962.609.609,0,0,1,1.058.6A56.8,56.8,0,0,1,43.466,40.175Z" transform="translate(0 0)" fill="#cbc3c2" fill-rule="evenodd"/>
    </g>
    <g id="Group_5" data-name="Group 5" transform="matrix(0.972, -0.235, 0.235, 0.972, 893.911, 436.113)">
      <path id="Path_4" data-name="Path 4" d="M50.611,36.644A52.76,52.76,0,0,1,0,.126L.386,0A52.355,52.355,0,0,0,50.609,36.237,52.824,52.824,0,0,0,95.6,10.38l.35.207A53.235,53.235,0,0,1,50.611,36.644Z" transform="translate(0 0)" fill="#cbc3c2" fill-rule="evenodd"/>
    </g>
    <g id="Group_6" data-name="Group 6" transform="translate(912.37 434.199)">
      <path id="Path_5" data-name="Path 5" d="M13.884-99.626a1.774,1.774,0,0,0,.59-.085,1.092,1.092,0,0,0,.431-.247.9.9,0,0,0,.263-.384,1.345,1.345,0,0,0,.088-.486,1.016,1.016,0,0,0-.335-.828,1.584,1.584,0,0,0-1.005-.273H13.07v2.3Zm2.64,3.158h-.686a.327.327,0,0,1-.311-.179l-1.484-2.185a.772.772,0,0,0-.144-.145.583.583,0,0,0-.239-.043h-.59v2.552H12.3v-6.119h1.611a3.3,3.3,0,0,1,.933.119,1.687,1.687,0,0,1,.654.341,1.257,1.257,0,0,1,.383.538,1.938,1.938,0,0,1,.128.7,1.883,1.883,0,0,1-.1.606,1.6,1.6,0,0,1-.279.5,1.552,1.552,0,0,1-.447.384,2.077,2.077,0,0,1-.59.239.776.776,0,0,1,.255.265Z" transform="translate(-12.304 102.588)" fill="#cbc3c2"/>
    </g>
    <g id="Group_7" data-name="Group 7" transform="translate(917.367 434.199)">
      <path id="Path_6" data-name="Path 6" d="M15.83-97.143l-.008.674H12.3v-6.119h3.518v.683H13.078v2.023H15.3v.649H13.078v2.091Z" transform="translate(-12.304 102.588)" fill="#cbc3c2"/>
    </g>
    <g id="Group_8" data-name="Group 8" transform="translate(921.503 434.131)">
      <path id="Path_7" data-name="Path 7" d="M7.8-102.708a.337.337,0,0,1-.08.1.162.162,0,0,1-.1.026.234.234,0,0,1-.16-.068c-.064-.051-.144-.1-.231-.162a1.574,1.574,0,0,0-.335-.154,1.249,1.249,0,0,0-.471-.077,1.279,1.279,0,0,0-.455.077.983.983,0,0,0-.327.2.772.772,0,0,0-.2.307.937.937,0,0,0-.072.367.719.719,0,0,0,.12.427,1.057,1.057,0,0,0,.311.29,2.418,2.418,0,0,0,.439.2q.239.09.5.179c.168.068.335.137.5.213a1.774,1.774,0,0,1,.439.3,1.4,1.4,0,0,1,.311.435,1.565,1.565,0,0,1,.12.64,2.36,2.36,0,0,1-.128.76,1.847,1.847,0,0,1-.375.606,1.63,1.63,0,0,1-.606.41,2.01,2.01,0,0,1-.806.154A2.307,2.307,0,0,1,5.2-97.69a2.4,2.4,0,0,1-.782-.589l.223-.393a.741.741,0,0,1,.08-.077.216.216,0,0,1,.1-.034.184.184,0,0,1,.112.051,1.293,1.293,0,0,1,.152.111c.056.043.12.094.191.145a1.045,1.045,0,0,0,.247.154,1.358,1.358,0,0,0,.311.111,1.439,1.439,0,0,0,.4.043,1.465,1.465,0,0,0,.487-.077.981.981,0,0,0,.367-.23,1.042,1.042,0,0,0,.231-.35,1.372,1.372,0,0,0,.072-.452.814.814,0,0,0-.112-.461,1.084,1.084,0,0,0-.311-.3,1.946,1.946,0,0,0-.439-.2c-.168-.06-.335-.111-.5-.171s-.335-.128-.5-.2a1.637,1.637,0,0,1-.439-.3,1.336,1.336,0,0,1-.311-.461,1.7,1.7,0,0,1-.112-.683,1.684,1.684,0,0,1,.112-.623,1.556,1.556,0,0,1,.343-.538,1.7,1.7,0,0,1,.558-.376,1.88,1.88,0,0,1,.75-.145,2.381,2.381,0,0,1,.877.162A2.082,2.082,0,0,1,8-103.1Z" transform="translate(-4.413 103.732)" fill="#cbc3c2"/>
    </g>
    <g id="Group_9" data-name="Group 9" transform="translate(925.687 434.199)">
      <path id="Path_8" data-name="Path 8" d="M6.481-101.888H4.631v5.419H3.865v-5.419H2.006v-.7H6.481Z" transform="translate(-2.006 102.588)" fill="#cbc3c2"/>
    </g>
    <g id="Group_10" data-name="Group 10" transform="translate(929.743 434.199)">
      <path id="Path_9" data-name="Path 9" d="M4.142-98.739l-.893-2.492a2.191,2.191,0,0,1-.088-.256,2.966,2.966,0,0,1-.08-.316,5.47,5.47,0,0,1-.175.58L2-98.739Zm1.611,2.27h-.6a.216.216,0,0,1-.168-.06.338.338,0,0,1-.1-.137l-.534-1.476H1.8l-.534,1.476a.3.3,0,0,1-.1.137.24.24,0,0,1-.168.06H.4l2.289-6.119h.782Z" transform="translate(-0.401 102.588)" fill="#cbc3c2"/>
    </g>
    <g id="Group_11" data-name="Group 11" transform="translate(935.651 434.199)">
      <path id="Path_10" data-name="Path 10" d="M13.374-97.126a1.533,1.533,0,0,0,.638-.128,1.34,1.34,0,0,0,.471-.358,1.63,1.63,0,0,0,.3-.555,2.414,2.414,0,0,0,.1-.7v-3.721h.766v3.721a3,3,0,0,1-.16.981,2.4,2.4,0,0,1-.447.785,2.023,2.023,0,0,1-.718.512,2.4,2.4,0,0,1-.949.2,2.4,2.4,0,0,1-.949-.2,2.023,2.023,0,0,1-.718-.512,2.284,2.284,0,0,1-.455-.785,3,3,0,0,1-.152-.981v-3.721h.766v3.721a2.207,2.207,0,0,0,.1.7,1.535,1.535,0,0,0,.3.546,1.363,1.363,0,0,0,.471.367A1.533,1.533,0,0,0,13.374-97.126Z" transform="translate(-11.1 102.588)" fill="#cbc3c2"/>
    </g>
    <g id="Group_12" data-name="Group 12" transform="translate(941.59 434.199)">
      <path id="Path_11" data-name="Path 11" d="M13.884-99.626a1.774,1.774,0,0,0,.59-.085,1.092,1.092,0,0,0,.431-.247.9.9,0,0,0,.263-.384,1.345,1.345,0,0,0,.088-.486,1.016,1.016,0,0,0-.335-.828,1.584,1.584,0,0,0-1.005-.273H13.07v2.3Zm2.64,3.158h-.686a.327.327,0,0,1-.311-.179l-1.484-2.185a.772.772,0,0,0-.144-.145.583.583,0,0,0-.239-.043h-.59v2.552H12.3v-6.119h1.611a3.3,3.3,0,0,1,.933.119,1.687,1.687,0,0,1,.654.341,1.257,1.257,0,0,1,.383.538,1.938,1.938,0,0,1,.128.7,1.883,1.883,0,0,1-.1.606,1.6,1.6,0,0,1-.279.5,1.552,1.552,0,0,1-.447.384,2.077,2.077,0,0,1-.59.239.776.776,0,0,1,.255.265Z" transform="translate(-12.304 102.588)" fill="#cbc3c2"/>
    </g>
    <g id="Group_13" data-name="Group 13" transform="translate(945.877 434.199)">
      <path id="Path_12" data-name="Path 12" d="M4.142-98.739l-.893-2.492a2.191,2.191,0,0,1-.088-.256,2.966,2.966,0,0,1-.08-.316,5.47,5.47,0,0,1-.175.58L2-98.739Zm1.611,2.27h-.6a.216.216,0,0,1-.168-.06.338.338,0,0,1-.1-.137l-.534-1.476H1.8l-.534,1.476a.3.3,0,0,1-.1.137.24.24,0,0,1-.168.06H.4l2.289-6.119h.782Z" transform="translate(-0.401 102.588)" fill="#cbc3c2"/>
    </g>
    <g id="Group_14" data-name="Group 14" transform="translate(951.988 434.199)">
      <path id="Path_13" data-name="Path 13" d="M16.931-102.588v6.119h-.383a.3.3,0,0,1-.16-.034.4.4,0,0,1-.12-.119l-3.31-4.608a2.085,2.085,0,0,1,.016.213c0,.068.008.128.008.2v4.352H12.3v-6.119h.391c.04,0,.072.009.1.009s.04.017.064.026.032.026.056.043.032.043.056.068l3.31,4.6a1.92,1.92,0,0,1-.016-.213,1.687,1.687,0,0,1-.008-.2v-4.335Z" transform="translate(-12.304 102.588)" fill="#cbc3c2"/>
    </g>
    <g id="Group_15" data-name="Group 15" transform="translate(957.464 434.199)">
      <path id="Path_14" data-name="Path 14" d="M6.481-101.888H4.631v5.419H3.865v-5.419H2.006v-.7H6.481Z" transform="translate(-2.006 102.588)" fill="#cbc3c2"/>
    </g>
    <g id="Group_16" data-name="Group 16" transform="matrix(1, 0.02, -0.02, 1, 894.846, 397.826)">
      <path id="Path_15" data-name="Path 15" d="M14.091,14.172a8.742,8.742,0,0,1-2.727-.465,4.1,4.1,0,0,1-2.316-2.168A27.98,27.98,0,0,1,13.56,9.19a22.134,22.134,0,0,1,4.223-1.316,14.084,14.084,0,0,1,2.34-.232,5.206,5.206,0,0,1,1.834.336,1.27,1.27,0,0,1,.917,1.316,3.018,3.018,0,0,1-1.086,2.039,8.875,8.875,0,0,1-3.161,1.91,13.262,13.262,0,0,1-3.5.878C14.791,14.146,14.429,14.172,14.091,14.172ZM.483,27.569c.1,0,.169-.1.169-.31a1.165,1.165,0,0,0-.145-.568c-.048-.1-.1-.232-.145-.361a1.671,1.671,0,0,1-.072-.568,14.094,14.094,0,0,1,1.134-5.653,16.507,16.507,0,0,1,3.04-4.724,22.914,22.914,0,0,1,4.343-3.691c1.038,1.988,2.9,2.994,5.622,2.994.265,0,.82-.026,1.617-.1a11.847,11.847,0,0,0,2.944-.8,9.477,9.477,0,0,0,3.354-2.143,3.622,3.622,0,0,0,1.134-2.323V8.7c-.024-.387-.483-.774-1.424-1.136a4.943,4.943,0,0,0-1.761-.258A18.505,18.505,0,0,0,13.464,8.88a27.389,27.389,0,0,0-4.536,2.375,6.025,6.025,0,0,1-.434-2.194,8.148,8.148,0,0,1,.29-1.833,6.322,6.322,0,0,1,1.568-2.556,12.7,12.7,0,0,1,3.378-2.478A17.523,17.523,0,0,1,17.735.723,12.843,12.843,0,0,1,20.847.31h.507a11.131,11.131,0,0,1,7.263,3.459A21.067,21.067,0,0,0,25.89,7.383c-.845,1.342-1.617,2.736-2.389,4.156q-1.158,2.168-2.389,4.182a24.587,24.587,0,0,1-2.751,3.743,14.24,14.24,0,0,1-3.5,2.84,16.285,16.285,0,0,1-2.871-.645,9.543,9.543,0,0,0-2.678-.516,2.538,2.538,0,0,0-2.051.7,1.315,1.315,0,0,0-.314.826,2.157,2.157,0,0,0,.434,1.058c.314.439,1.11.723,2.389.878l.579.026a10.433,10.433,0,0,0,3.306-.568,10.432,10.432,0,0,0,2.9-1.368l.748.026a20.538,20.538,0,0,0,10.593-2.581A11.01,11.01,0,0,0,31.9,15.8a9.17,9.17,0,0,0,.965-4.208,11.261,11.261,0,0,0-3.113-7.46,4.043,4.043,0,0,1,.845-.8,2.966,2.966,0,0,1,1.4-.568.456.456,0,0,0,.265-.181.41.41,0,0,0,.145-.258c0-.1-.048-.155-.169-.207a5.34,5.34,0,0,0-3.185,1.239A11.478,11.478,0,0,0,25.5.929,12.03,12.03,0,0,0,20.92,0a15.393,15.393,0,0,0-3.475.465,17.043,17.043,0,0,0-3.957,1.523,12.123,12.123,0,0,0-3.45,2.581A7.131,7.131,0,0,0,8.349,7.8,5.652,5.652,0,0,0,8.2,9.061a6.258,6.258,0,0,0,.458,2.349,22.824,22.824,0,0,0-4.416,3.769,16.8,16.8,0,0,0-3.113,4.8A14.691,14.691,0,0,0,0,25.736v.336A4.874,4.874,0,0,0,.121,27.13C.217,27.414.338,27.569.483,27.569ZM17.059,22.38h-.1a19.114,19.114,0,0,0,4.223-4.621,56.477,56.477,0,0,0,3.185-5.4c.748-1.394,1.52-2.762,2.316-4.079a23.287,23.287,0,0,1,2.727-3.614A10.629,10.629,0,0,1,31.9,10.325c.024.258.024.542.024.8a8.437,8.437,0,0,1-1.134,4.311,11.86,11.86,0,0,1-3.643,3.975,16.556,16.556,0,0,1-4.922,2.246A19.131,19.131,0,0,1,17.059,22.38ZM9.314,23.749c-1.4,0-2.1-.361-2.1-1.058a1.052,1.052,0,0,1,.338-.7,2.552,2.552,0,0,1,1.786-.542,8.371,8.371,0,0,1,2.485.516,16.843,16.843,0,0,0,2.558.594,13.864,13.864,0,0,1-1.954.671A11.381,11.381,0,0,1,9.314,23.749Z" transform="translate(0 0)" fill="#cbc3c2"/>
    </g>
    <g id="Group_17" data-name="Group 17" transform="matrix(1, 0.02, -0.02, 1, 928.348, 412.185)">
      <path id="Path_16" data-name="Path 16" d="M.748,3.511a1.555,1.555,0,0,0,1.182-.62,2.228,2.228,0,0,0,.41-.878c.048-.232.145-.336.29-.336a.379.379,0,0,1,.217.1,2.129,2.129,0,0,0,1.4.568c.024,0,.145-.026.386-.077A2.682,2.682,0,0,0,5.694,1.5c.024-.052.048-.077.048-.1a.158.158,0,0,0-.169-.181c-.048,0-.072.026-.1.077a1.623,1.623,0,0,1-1.231.749H3.909a1.823,1.823,0,0,1-.917-.516,1.763,1.763,0,0,1-.627-.9C2.316.49,2.22.31,2.1.077A.4.4,0,0,0,1.81,0c-.121,0-.193.026-.193.1a.164.164,0,0,0,.024.1,2.145,2.145,0,0,1,.338,1.162,2.317,2.317,0,0,1-.217.981c-.121.207-.217.31-.338.31-.169,0-.241-.155-.241-.439V2.168a1.139,1.139,0,0,1,.29-.8A.688.688,0,0,0,1.689.9.625.625,0,0,0,1.3.31.309.309,0,0,0,1.11.232.673.673,0,0,0,.724.387a2.113,2.113,0,0,0-.555.955A2.941,2.941,0,0,0,0,2.349v.1C.072,3.149.338,3.511.748,3.511Z" transform="translate(0 0)" fill="#cbc3c2"/>
    </g>
    <g id="Group_18" data-name="Group 18" transform="matrix(1, 0.02, -0.02, 1, 933.754, 410.074)">
      <path id="Path_17" data-name="Path 17" d="M1.327,8.157a2.939,2.939,0,0,0,1.4-.387A11,11,0,0,0,5.26,5.963,13.835,13.835,0,0,0,7.335,3.64V3.588c0-.077-.048-.129-.145-.129a.213.213,0,0,0-.169.077,11.627,11.627,0,0,1-1.954,2.22,11.371,11.371,0,0,1-2.413,1.73,2.14,2.14,0,0,1-.989.284c-.29,0-.483-.181-.6-.542a1.378,1.378,0,0,1-.048-.31,7.391,7.391,0,0,1,.651-2.272,6.7,6.7,0,0,0,.676-2.4A1.151,1.151,0,0,0,2,1.42.925.925,0,0,1,1.737.955L1.81.723A1.858,1.858,0,0,0,1.882.516.606.606,0,0,0,1.906.31c0-.129-.024-.207-.121-.258A.178.178,0,0,0,1.665,0a.444.444,0,0,0-.314.181,1.227,1.227,0,0,0-.217.671.811.811,0,0,0,.048.336A13.25,13.25,0,0,1,.024,3.64.1.1,0,0,0,0,3.717c0,.052.024.1.121.1a.1.1,0,0,1,.072-.026.179.179,0,0,0,.1-.052,6.491,6.491,0,0,0,.6-.981,7.605,7.605,0,0,0,.531-1.007.647.647,0,0,1,.072.31,1.033,1.033,0,0,1-.024.284v.026A9.172,9.172,0,0,1,.845,4.388a6.656,6.656,0,0,0-.7,2.478,2.088,2.088,0,0,0,.024.387,1.038,1.038,0,0,0,.6.8A1.334,1.334,0,0,0,1.327,8.157Z" transform="translate(0 0)" fill="#cbc3c2"/>
    </g>
    <g id="Group_19" data-name="Group 19" transform="matrix(1, 0.02, -0.02, 1, 938.647, 405.757)">
      <path id="Path_18" data-name="Path 18" d="M3.547,20.264a1.188,1.188,0,0,1-.82-.413,5.466,5.466,0,0,1-1.158-3.9,15.9,15.9,0,0,1,.145-2.194,15.98,15.98,0,0,1,1.641,2.323,7.033,7.033,0,0,1,.965,2.659L4.343,19c0,.594-.145,1.007-.458,1.162A.574.574,0,0,1,3.547,20.264Zm.1-13.914c.386-.878.917-1.91,1.568-3.072A10.943,10.943,0,0,1,7.166.594.732.732,0,0,1,7.649.31c.072,0,.1.026.1.1a1.513,1.513,0,0,1-.193.542A23,23,0,0,1,5.091,4.492Q4.367,5.382,3.643,6.35Zm-.434,14.3a1.27,1.27,0,0,0,.676-.181A1.688,1.688,0,0,0,4.56,18.9l-.024-.31A7.565,7.565,0,0,0,3.523,15.8a13.31,13.31,0,0,0-1.761-2.426c.072-.413.169-.8.241-1.213a16.815,16.815,0,0,0,4.054-1.42,10.489,10.489,0,0,0,3.4-2.607.206.206,0,0,0,.024-.1c0-.129-.048-.181-.145-.181a.13.13,0,0,0-.1.077,9.508,9.508,0,0,1-3.282,2.5A16.723,16.723,0,0,1,2.1,11.848a18.956,18.956,0,0,1,.362-1.936,17.533,17.533,0,0,1,.724-2.426q.651-.891,1.52-2.013l.579-.749c.458-.594.941-1.187,1.424-1.859A5.246,5.246,0,0,0,7.962.413C7.962.129,7.842,0,7.576,0a1.507,1.507,0,0,0-.724.284A10.981,10.981,0,0,0,4.416,3.407,33.762,33.762,0,0,0,2.2,7.951,24.306,24.306,0,0,0,.845,12.029a2.454,2.454,0,0,1-.434.026l-.241-.026A.158.158,0,0,0,0,12.21a.131.131,0,0,0,.1.129,2.8,2.8,0,0,1,.6.387,17.248,17.248,0,0,0-.29,3.1c0,2.194.6,3.691,1.786,4.517A2.064,2.064,0,0,0,3.209,20.651ZM.772,12.416.7,12.365l.072-.026Z" transform="translate(0 0)" fill="#cbc3c2"/>
    </g>
    <g id="Group_20" data-name="Group 20" transform="matrix(1, 0.02, -0.02, 1, 947.44, 412.57)">
      <path id="Path_19" data-name="Path 19" d="M1.568,4.027a4.207,4.207,0,0,0,.8-.1,12.017,12.017,0,0,0,2.775-1.11A9.26,9.26,0,0,0,7.046,1.5a.106.106,0,0,0,.048-.1c0-.129-.048-.181-.145-.181a.179.179,0,0,0-.1.052A7.248,7.248,0,0,1,4.9,2.53a10.453,10.453,0,0,1-2.63.955,5.139,5.139,0,0,1-.627.052c-.072,0-.193-.026-.362-.026A.614.614,0,0,1,.8,3.2a1.126,1.126,0,0,1-.121-.49,2.925,2.925,0,0,1,.072-.516,3.62,3.62,0,0,1,.338-.826A3.852,3.852,0,0,1,1.544.645c.072-.077.121-.1.145-.1s.024,0,.024.052a.693.693,0,0,1-.048.181L1.592.929a.348.348,0,0,0-.024.155.544.544,0,0,0,.121.232.588.588,0,0,0,.386.129.241.241,0,0,0,.241-.155A1.507,1.507,0,0,0,2.509.645.587.587,0,0,0,2.268.129.566.566,0,0,0,1.858,0a1.472,1.472,0,0,0-.8.284A2.974,2.974,0,0,0,.145,1.652a2.452,2.452,0,0,0-.145.8,2.306,2.306,0,0,0,.193.878,1.218,1.218,0,0,0,.917.645A2.771,2.771,0,0,0,1.568,4.027Z" transform="translate(0 0)" fill="#cbc3c2"/>
    </g>
    <g id="Group_21" data-name="Group 21" transform="matrix(1, 0.02, -0.02, 1, 954.162, 412.499)">
      <path id="Path_20" data-name="Path 20" d="M3.282,5.034a4.526,4.526,0,0,0,1.954-.568A9.181,9.181,0,0,0,8.493,1.6l.024-.052c0-.077-.048-.1-.145-.1a.213.213,0,0,0-.169.077,7.646,7.646,0,0,1-1.3,1.42A8.747,8.747,0,0,1,5.067,4.208a2.879,2.879,0,0,1-1.231.284,1.609,1.609,0,0,1-.676-.155.921.921,0,0,1-.483-.955A6.029,6.029,0,0,1,3.547.749.436.436,0,0,0,3.619.516.607.607,0,0,0,3.547.258.4.4,0,0,0,3.161.052.493.493,0,0,0,2.9.181,1.942,1.942,0,0,0,2.1,0,2.317,2.317,0,0,0,.748.568,2.16,2.16,0,0,0,0,2.349c.024.542.265.8.7.8a1.939,1.939,0,0,0,1.206-.594,3.832,3.832,0,0,0-.121.826c0,.129.024.232.024.336a1.378,1.378,0,0,0,.772,1.162A1.559,1.559,0,0,0,3.282,5.034Zm-2-2.452c-.072,0-.121-.077-.121-.232a1.1,1.1,0,0,1,.072-.387,1.248,1.248,0,0,1,.434-.568.629.629,0,0,1,.41-.155.809.809,0,0,1,.241.052,5.442,5.442,0,0,0-.265.671,4.939,4.939,0,0,1-.531.516A.376.376,0,0,1,1.279,2.581Z" transform="translate(0 0)" fill="#cbc3c2"/>
    </g>
    <g id="Group_22" data-name="Group 22" transform="matrix(1, 0.02, -0.02, 1, 960.309, 406.194)">
      <path id="Path_21" data-name="Path 21" d="M3.547,20.264a1.188,1.188,0,0,1-.82-.413,5.466,5.466,0,0,1-1.158-3.9,15.9,15.9,0,0,1,.145-2.194,15.98,15.98,0,0,1,1.641,2.323,7.033,7.033,0,0,1,.965,2.659L4.343,19c0,.594-.145,1.007-.458,1.162A.574.574,0,0,1,3.547,20.264Zm.1-13.914c.386-.878.917-1.91,1.568-3.072A10.943,10.943,0,0,1,7.166.594.732.732,0,0,1,7.649.31c.072,0,.1.026.1.1a1.513,1.513,0,0,1-.193.542A23,23,0,0,1,5.091,4.492Q4.367,5.382,3.643,6.35Zm-.434,14.3a1.27,1.27,0,0,0,.676-.181A1.688,1.688,0,0,0,4.56,18.9l-.024-.31A7.565,7.565,0,0,0,3.523,15.8a13.31,13.31,0,0,0-1.761-2.426c.072-.413.169-.8.241-1.213a16.815,16.815,0,0,0,4.054-1.42,10.489,10.489,0,0,0,3.4-2.607.206.206,0,0,0,.024-.1c0-.129-.048-.181-.145-.181a.13.13,0,0,0-.1.077,9.508,9.508,0,0,1-3.282,2.5A16.723,16.723,0,0,1,2.1,11.848a18.956,18.956,0,0,1,.362-1.936,17.533,17.533,0,0,1,.724-2.426q.651-.891,1.52-2.013l.579-.749c.458-.594.941-1.187,1.424-1.859A5.246,5.246,0,0,0,7.962.413C7.962.129,7.842,0,7.576,0a1.507,1.507,0,0,0-.724.284A10.981,10.981,0,0,0,4.416,3.407,33.762,33.762,0,0,0,2.2,7.951,24.306,24.306,0,0,0,.845,12.029a2.454,2.454,0,0,1-.434.026l-.241-.026A.158.158,0,0,0,0,12.21a.131.131,0,0,0,.1.129,2.8,2.8,0,0,1,.6.387,17.248,17.248,0,0,0-.29,3.1c0,2.194.6,3.691,1.786,4.517A2.064,2.064,0,0,0,3.209,20.651ZM.772,12.416.7,12.365l.072-.026Z" transform="translate(0 0)" fill="#cbc3c2"/>
    </g>
    <g id="Group_23" data-name="Group 23" transform="matrix(1, 0.02, -0.02, 1, 969.255, 412.571)">
      <path id="Path_22" data-name="Path 22" d="M1.713,4.492a6.38,6.38,0,0,0,2.8-.749A8.355,8.355,0,0,0,6.973,1.936C7,1.91,7,1.884,7,1.833c0-.1-.048-.181-.145-.181-.024,0-.048.026-.1.077A7.122,7.122,0,0,1,4.44,3.407a4.517,4.517,0,0,1-1.954.465c-.893,0-1.4-.258-1.544-.749a1.725,1.725,0,0,1-.072-.49,2.1,2.1,0,0,1,.1-.645A2.669,2.669,0,0,0,2.22,1.6.981.981,0,0,0,2.751.8.541.541,0,0,0,2.7.542.762.762,0,0,0,1.858,0H1.81A1.8,1.8,0,0,0,.579.774,3.1,3.1,0,0,0,0,2.607,2.369,2.369,0,0,0,.362,3.846a1.445,1.445,0,0,0,1.3.645Zm-.627-2.84A1.556,1.556,0,0,1,1.834.9,1.222,1.222,0,0,1,2.292.8c.121,0,.193.026.193.129s-.145.258-.434.439A2.607,2.607,0,0,1,1.086,1.652Z" transform="translate(0 0)" fill="#cbc3c2"/>
    </g>
    <g id="Group_24" data-name="Group 24" transform="translate(969.096 407.133)">
      <path id="Path_23" data-name="Path 23" d="M1779,1702.458a.676.676,0,0,1,.143-.075,1.468,1.468,0,0,1,1.1-.234.837.837,0,0,1-.132.315l-.487.562a7.514,7.514,0,0,1-3.94,2.314l1.353-1a11.231,11.231,0,0,0,1.474-1.324Z" transform="translate(-1775.686 -1702.111)" fill="#cbc3c2" fill-rule="evenodd"/>
    </g>
    <path id="Path_24" data-name="Path 24" d="M561.116,1561.8q.351-.81.735-1.6a22.529,22.529,0,0,1,3.251-5.281,7.394,7.394,0,0,1,1-.95,1.712,1.712,0,0,1,.982-.392h.032a.8.8,0,0,1,.773.547,2.06,2.06,0,0,1-.361,1.518,16.443,16.443,0,0,1-1.656,2.315q-.4.5-.814,1l-.6.741q-.766.947-1.511,1.91l0,.007a21.508,21.508,0,0,0-1.016,3.555l0,.017a15.078,15.078,0,0,0,4.247-1.727,8.882,8.882,0,0,0,2.026-1.671,3.23,3.23,0,0,1,.923-1.132,2.757,2.757,0,0,1,.732-.344,1.148,1.148,0,0,1,1.269.493,1.512,1.512,0,0,1-.109,1.42.854.854,0,0,1-1.282.111,2.225,2.225,0,0,0-.339,1.129.871.871,0,0,0,.044.2.606.606,0,0,0,.485.143,3.488,3.488,0,0,0,.527-.031l.011,0a10.379,10.379,0,0,0,3.745-1.5,4.152,4.152,0,0,0,.607-.458,2.672,2.672,0,0,1,2.3-1.6h.026a2.537,2.537,0,0,1,.773.135s.848-.222,1.128.5c.19.491-.214,1.008-.458,1.531a3.614,3.614,0,0,0-.472,1.824.5.5,0,0,0,.36.462,2.185,2.185,0,0,0,1.656-.282,7.931,7.931,0,0,0,2.717-2.278q.326-.745.68-1.477a22.538,22.538,0,0,1,3.252-5.281,6.773,6.773,0,0,1,1.032-.974,1.713,1.713,0,0,1,.952-.369h.031a.8.8,0,0,1,.773.546,2.037,2.037,0,0,1-.35,1.5,15.931,15.931,0,0,1-1.621,2.278q-.4.506-.817,1l-.043.052c-.712.877-1.423,1.756-2.113,2.652l-.005.006a21.619,21.619,0,0,0-1.015,3.556l0,.017a15.087,15.087,0,0,0,4.219-1.71,8.856,8.856,0,0,0,2.029-1.659,3.288,3.288,0,0,1,.778-1.326,2.217,2.217,0,0,1,1.263-.641s.107-.007.152-.007a1.269,1.269,0,0,1,1.214.805,1.383,1.383,0,0,1-.591,1.556,1.589,1.589,0,0,1-.309.172,3.176,3.176,0,0,1-.916.261h-.006a1,1,0,0,0,.1.789,1.167,1.167,0,0,0,.851.3,4.443,4.443,0,0,0,2.23-.51,6.6,6.6,0,0,0,1.958-1.418.614.614,0,0,1,.109-.094.548.548,0,0,1,.275-.1.457.457,0,0,1,.067,0,.607.607,0,0,1,.414.956s-.251.273-.49.485a9.072,9.072,0,0,1-3.3,1.855,5.609,5.609,0,0,1-1.932.289,1.985,1.985,0,0,1-1.675-.944q-.04-.075-.077-.153a2.754,2.754,0,0,1-.2-.6,12.984,12.984,0,0,1-3.242,1.914,16.828,16.828,0,0,1-3.182,1.016h0c-.053.23-.1.46-.15.69,0,0,.236.3.458.6a9.979,9.979,0,0,1,2.163,4.742l0,.061.006.311a2.179,2.179,0,0,1-.944,1.953,2.1,2.1,0,0,1-2.077-.165,3.755,3.755,0,0,1-1.292-1.521,7.78,7.78,0,0,1-.613-3.854,17.313,17.313,0,0,1,.3-2.468,1.753,1.753,0,0,0-.295-.18.706.706,0,0,1-.354-.607.6.6,0,0,1,.61-.519l.26.018c.126,0,.089-.078.106-.136q.159-.579.35-1.152a10.818,10.818,0,0,1-1.389.865l-.111.057a3.616,3.616,0,0,1-2.92.4,1.98,1.98,0,0,1-1.079-1.9s-.99.362-1.494-.245a1.152,1.152,0,0,1-.217-.418,14.784,14.784,0,0,1-1.388.748,11.407,11.407,0,0,1-2.6.922,2.225,2.225,0,0,1-2.568-.855,3.18,3.18,0,0,1-.146-.418c-.013-.05-.024-.1-.033-.15a13.2,13.2,0,0,1-3.066,1.77,16.771,16.771,0,0,1-3.182,1.016h0q-.078.344-.15.689s.262.333.487.635a10.045,10.045,0,0,1,2.132,4.681.585.585,0,0,1,.008.084l.006.311a2.174,2.174,0,0,1-.944,1.953,2.1,2.1,0,0,1-2.077-.165,3.749,3.749,0,0,1-1.291-1.521,8.744,8.744,0,0,1-.537-4.844c.053-.5.128-.989.222-1.479a1.768,1.768,0,0,0-.294-.179.71.71,0,0,1-.354-.607.6.6,0,0,1,.61-.518l.26.018c.126,0,.089-.078.106-.136q.109-.4.232-.787c-.091.079-.182.158-.274.236a10.207,10.207,0,0,1-2.664,1.714,2.769,2.769,0,0,1-2.015.134,1.58,1.58,0,0,1-.537-.4,1.764,1.764,0,0,1-.32-.687,3.724,3.724,0,0,1,.082-1.382,10.357,10.357,0,0,1,.683-1.83c-.082.075-.175.158-.265.231a2.186,2.186,0,0,1-.832.476c-.131.03-.261.061-.392.085a2.355,2.355,0,0,1-.456-.029,2.687,2.687,0,0,1-1.146-.539s-.063.184-.125.323a2.134,2.134,0,0,1-1.834,1.33,1.082,1.082,0,0,1-.861-.407,1.973,1.973,0,0,1-.341-1.222,3.139,3.139,0,0,1,.852-2.177.983.983,0,0,1,.893-.286.615.615,0,0,1,.176-.163.8.8,0,0,1,1,.193.651.651,0,0,1,.06.1,9.074,9.074,0,0,0,.426.932,1.867,1.867,0,0,0,.918.753,1.2,1.2,0,0,0,1.157-.43,16.437,16.437,0,0,0,1.1-2.149,2.072,2.072,0,0,1-.02-.438,1.669,1.669,0,0,1,.316-.8,1.013,1.013,0,0,1,.65-.36h.025a.681.681,0,0,1,.349.107.867.867,0,0,1,.3.506,1.6,1.6,0,0,1-.159.774,1.008,1.008,0,0,0,.158.217,2.648,2.648,0,0,1,.073,2.574,15.623,15.623,0,0,0-1.083,3.028,1.1,1.1,0,0,0,0,.31s.059.248.231.248a2.741,2.741,0,0,0,1.282-.5A12.032,12.032,0,0,0,561.116,1561.8Zm21.816,7.384a9.073,9.073,0,0,0,.195,3.4,3.364,3.364,0,0,0,.694,1.305l0,0c.183.169.41.38.655.262.151-.074.225-.38.245-.605.006-.072.01-.178.01-.178,0-.11-.011-.257-.011-.26,0-.019,0-.037-.008-.056a9.239,9.239,0,0,0-1.783-3.9C582.932,1569.175,582.932,1569.182,582.931,1569.188Zm-58.363-2.374a19.007,19.007,0,0,1,4.17.992q.663.16,1.339.264c2.924-1.651,5.054-4.516,6.765-7.293q.885-1.436,1.714-2.909l.012-.021a10.089,10.089,0,0,1-4.929,2.972,11.47,11.47,0,0,1-4.554.472,6.527,6.527,0,0,1-4.074-1.759,5.815,5.815,0,0,1-.85-1.108l-.011-.02a18.592,18.592,0,0,0-7.2,8.256,14.167,14.167,0,0,0-1.008,5.047c-.008.472.3.913.334,1.464,0,0-.066.757-.613.762-.405,0-.705-.453-.786-.854-.01-.052-.02-.1-.029-.156a8.565,8.565,0,0,1-.034-1.855,16.326,16.326,0,0,1,4.737-10.371,23.818,23.818,0,0,1,4.111-3.362,6.758,6.758,0,0,1,.633-5.488,11.268,11.268,0,0,1,5.014-4.2,18.03,18.03,0,0,1,6-1.675,12.055,12.055,0,0,1,9.446,3.333l.044-.029a5.732,5.732,0,0,1,3.136-1l.086.009.083.027a.649.649,0,0,1,.4.667.99.99,0,0,1-.74.778,3.85,3.85,0,0,0-.484.1,3.379,3.379,0,0,0-1.3.812l-.011.01a11.659,11.659,0,0,1,2.823,7.745,9.559,9.559,0,0,1-1.107,4.151,11.475,11.475,0,0,1-4.718,4.664,21.265,21.265,0,0,1-10.393,2.173l-.619-.023-.059.038a11.01,11.01,0,0,1-2.672,1.2,11.594,11.594,0,0,1-3.639.564l-.582-.024a3.648,3.648,0,0,1-2.722-1.152,2.119,2.119,0,0,1-.427-1.648,1.934,1.934,0,0,1,.937-1.174A3.571,3.571,0,0,1,524.568,1566.814Zm58.675-3.414-.02.022a22.728,22.728,0,0,0-1,2.994l-.07.163,0,.163a.846.846,0,0,1-.065.2l-.021.041,0,.153a11.539,11.539,0,0,0-.152,5.074,3.925,3.925,0,0,0,.861,1.716,7.284,7.284,0,0,1-.744-4.125,15.036,15.036,0,0,1,.187-1.782l.045-.131.042-.054-.023-.087a7.131,7.131,0,0,1,.251-1.26.486.486,0,0,1,.1-.241l0-.119a18.435,18.435,0,0,1,.617-2.728Zm-21.974,5.352a9.061,9.061,0,0,0,.2,3.4,3.381,3.381,0,0,0,.694,1.306l0,0c.191.176.434.355.637.27s.243-.385.264-.615c.006-.072.01-.177.01-.177,0-.111-.01-.257-.011-.26l-.007-.055a9.213,9.213,0,0,0-1.783-3.9C561.27,1568.739,561.27,1568.745,561.269,1568.752Zm.276-5.649-.056.064a21.93,21.93,0,0,0-.931,2.838l-.064.137a.643.643,0,0,1-.011.225,1.3,1.3,0,0,1-.073.174l0,.152a11.471,11.471,0,0,0-.156,5.056,3.941,3.941,0,0,0,.866,1.734l-.029-.049a7.386,7.386,0,0,1-.716-4.076,15.149,15.149,0,0,1,.187-1.783l.045-.131.042-.054-.023-.088a7.144,7.144,0,0,1,.251-1.26.485.485,0,0,1,.1-.241l0-.119A17.933,17.933,0,0,1,561.545,1563.1Zm-15.7-13.443a6.925,6.925,0,0,0-.883.547l-.138.066-.134.012a1.284,1.284,0,0,1-.3.475c-2.386,2.541-4,5.688-5.768,8.718a34,34,0,0,1-4.882,6.855,14.665,14.665,0,0,1-3.372,2.557l-.13.047-.138,0-.046,0-.087.128-.127.089a13.506,13.506,0,0,1-2.608.809,11.646,11.646,0,0,1-2.323.311l.158.025.55.023h.088a11.19,11.19,0,0,0,4.575-1.011,8.36,8.36,0,0,0,1.318-.72l.122-.057.136-.016.038-.095.1-.111a20.8,20.8,0,0,0,4.451-4.765c1.326-1.949,2.486-4.036,3.625-6.017a33.422,33.422,0,0,1,4.661-6.618l.025-.025a.527.527,0,0,1,.241-.123l-.02-.11c.025-.158.01-.17.112-.3a4.532,4.532,0,0,1,.773-.71S545.9,1549.634,545.844,1549.66Zm-21.315,18.326a2.026,2.026,0,0,0-1.341.374.525.525,0,0,0-.211.616c.174.319.6.357.967.4a10.389,10.389,0,0,0,4.114-.51l.016,0-.089-.024a13.538,13.538,0,0,0-3.4-.855Zm20.487-16.124a36.292,36.292,0,0,0-4.753,7.069l-.036.064a54.719,54.719,0,0,1-3.5,5.653,20.618,20.618,0,0,1-3.229,3.546l-.028.024a17.214,17.214,0,0,0,9.187-2.979,11.483,11.483,0,0,0,3.134-3.359c.084-.136.127-.213.183-.312a8.449,8.449,0,0,0,.7-6.434,11.561,11.561,0,0,0-1.63-3.241S545.021,1551.855,545.015,1551.862Zm2.791,4.541a9.366,9.366,0,0,1-1.159,5.709c-.108.188-.156.262-.224.369a13.381,13.381,0,0,1-5.333,4.684,11.539,11.539,0,0,0,4.606-3.178,11.313,11.313,0,0,0,1.238-1.822,9.067,9.067,0,0,0,.872-5.776Zm8.681,4.323a8.713,8.713,0,0,1-.682,1.989l-.016.032a4.9,4.9,0,0,0-.7,2.6s.024.1.048.163a1.137,1.137,0,0,1-.027-.159,3.9,3.9,0,0,1,.369-1.784,14.01,14.01,0,0,0,1.01-2.863Zm21.2,1.508c.163-.36.352-.7.534-1.025.019-.034.031-.076-.018-.039a.885.885,0,0,1-.51.019,1.655,1.655,0,0,0-.582-.113,1.858,1.858,0,0,0-1.191.559,1.28,1.28,0,0,0-.188.229.592.592,0,0,1-.105.785c-.061.058-.123.115-.187.17,0,.038-.005.077-.008.115,0,0-.058.45.377.39a1.275,1.275,0,0,1-.066-.409,1.451,1.451,0,0,1,1.74-1.4.548.548,0,0,1,.249.2.586.586,0,0,1-.045.512c-.031.069-.061.138-.09.208,0,.01-.008.02-.013.03l0,0c-.03.074-.06.149-.087.224-.02.054-.034.091-.034.091a1,1,0,0,1-.17.212l.026.068a.64.64,0,0,1,.017.154,3.414,3.414,0,0,0-.1.765,1.578,1.578,0,0,0,.029.509,1.318,1.318,0,0,0,.159.4,2.04,2.04,0,0,1-.165-.524,2.637,2.637,0,0,1-.023-.387c.025-.287.1-.548.1-.765a4.785,4.785,0,0,1,.16-.526c.024-.064.057-.151.087-.224l.014-.034C577.625,1562.373,577.657,1562.3,577.686,1562.234Zm12.849.967,0,.005a2.2,2.2,0,0,0,.006.273c0-.01,0-.02,0-.029C590.532,1563.367,590.532,1563.284,590.535,1563.2Zm-40.213-2.22c-.138.044-.182.144-.251.236a2.491,2.491,0,0,0-.442,1.425l0,.088c.03.3.1.652.34.65a.873.873,0,0,0,.329-.07.9.9,0,0,1-.244-.251,1.19,1.19,0,0,1-.1-.7,1.722,1.722,0,0,1,.446-1.006l.016-.015a.206.206,0,0,0,.052-.222C550.441,1561.042,550.343,1560.974,550.323,1560.981Zm40.5,1.173a.467.467,0,0,1,.027-.063,1.912,1.912,0,0,1,.921-.86c.031-.013.159-.06.275-.091l-.035,0a.284.284,0,0,0-.039,0,1.663,1.663,0,0,0-1.174.987Zm-6.509-1.217-.108.225.158-.2S584.361,1560.848,584.319,1560.937Zm-21.662-.436-.107.225.157-.2S562.7,1560.411,562.656,1560.5Zm-27.137-6.109a13.159,13.159,0,0,0-2.05.194l-.039.007a25.24,25.24,0,0,0-8.3,3.2l0,0a3.669,3.669,0,0,0,1.924,1.689,10.85,10.85,0,0,0,8.363-.971,5.247,5.247,0,0,0,2.421-2.184,1.931,1.931,0,0,0,.089-.218,1.54,1.54,0,0,0,.05-.182.994.994,0,0,0-.62-1.2A5.183,5.183,0,0,0,535.519,1554.391Zm58.815.411a1.028,1.028,0,0,1,.386.079.543.543,0,0,1,.232.557,1.149,1.149,0,0,1-.173.382l-.028.038-.5.581a8.138,8.138,0,0,1-4.133,2.437.429.429,0,0,1-.377-.756c.554-.409,1.124-.8,1.654-1.231a11.79,11.79,0,0,0,1.109-1.034l.48-.554a.844.844,0,0,1,.293-.186l-.007,0A2.355,2.355,0,0,1,594.334,1554.8Zm-58.613-1.593a5.067,5.067,0,0,1,3.167.92,1.281,1.281,0,0,1,.571.95c0,.2,0,.41,0,.615a3.9,3.9,0,0,1-.147.848,34.826,34.826,0,0,1,4.357-6.268l0,0a10.912,10.912,0,0,0-6.588-3.163l-.027,0a14.961,14.961,0,0,0-7.794,1.856,11.89,11.89,0,0,0-2.935,2.135l-.02.021a5.716,5.716,0,0,0-1.56,2.466,5.877,5.877,0,0,0-.074,3.127,28.232,28.232,0,0,1,6.012-2.652,17.077,17.077,0,0,1,4.964-.85Z" transform="translate(379.104 -1148.103)" fill="#cbc3c2" fill-rule="evenodd"/>
    <g id="Group_25" data-name="Group 25" transform="translate(935.803 394.578)">
      <path id="Path_25" data-name="Path 25" d="M685.556,929.583l-.031,5.85-2.079-.078.061-2.208,1.529.078-.031-2.078-.989.025-.05-.426,1.009-.05.061-.957-.978.041v-.468l1.5.009Zm-8.065-.755q.006-.349.01-.7v-.058l.134,0,0,.058-.024.574c0,.041,0,.083,0,.124l.381.009.347.009.872.034.055-.772.612.155-.009.69.171.011c.329.02.681.037.907.043l.248.006q0-.333.008-.666v-.058l.134,0,0,.058-.023.549q0,.058,0,.117l.338.008.312.009q.463.017.928.038l.066,0-.005.131c-.543-.02-1.079-.043-1.643-.076-.008.239-.016.478-.023.694l.361.009.312.009q.463.018.928.039l.066,0-.005.131c-.547-.02-1.087-.044-1.654-.076h-.01c0,.137-.007.263-.009.37s0,.228-.006.342l.375.009.312.009q.463.017.927.038l.066,0-.005.131c-.547-.02-1.087-.044-1.654-.076h-.022q0,.277-.009.554l.382.009.312.009q.463.017.927.039l.066,0-.005.131c-.547-.02-1.087-.043-1.654-.076l-.03,0-.008.446q0,.072,0,.144l.392.01.313.009q.463.017.927.038l.066,0-.005.132c-.547-.02-1.087-.044-1.654-.076l-.041,0q-.006.231-.012.462l.2,0,.312.009q.463.018.927.039l.066,0-.005.132c-.5-.018-.989-.039-1.5-.068q-.008.272-.015.544l1.454.079-.061,2.015L665.7,935.4l-.233-6.588.031-.349.856.116,0,.37.3.024c.283.021.537.033.792.042q.005-.332.009-.663v-.058l.134,0,0,.058-.023.549c0,.038,0,.076,0,.114l.255.007.226.007.537.027,0-.132.355.075,0-.059.411.026c.329.02.681.037.907.043l.248.006q0-.333.008-.666v-.058l.134,0,0,.058-.023.549q0,.058,0,.117l.338.008.312.009.727.03.01-.49.489.116,0,.269.085.005c.329.02.681.037.907.043l.248.006q0-.333.008-.666v-.058l.134,0,0,.058-.023.549q0,.058,0,.117l.338.008.312.009.7.029.009-.682.642.116-.007.258.344.021c.365.02.756.038,1.007.045Zm11.978.6-.061,5.54-1.559.155v-2.247l.061-2.324s.306-.31.306.271-.031,1.86-.031,1.86a.607.607,0,0,0,.856-.658c0-.969.061-2.634.061-2.634Zm1.323-.695q-.011-.347-.024-.693l0-.058.134,0,0,.628c0,.041,0,.081,0,.122l.211-.008.211-.007q.315-.006.628-.008h.066q0,.066,0,.131h-.077l-.272.005c-.184,0-.473,0-.768,0,0,.249.007.5.011.723l.228-.009.211-.007q.315-.006.628-.008h.066c0,.044,0,.088,0,.131h-.077l-.272.005c-.187,0-.483,0-.785,0,0,.143.006.274.01.386s.007.238.011.356l.236-.009.211-.007q.315-.006.628-.008h.066c0,.044,0,.088,0,.131l-.077,0-.272.005c-.189,0-.487,0-.791,0q.009.289.018.578l.238-.009.211-.007q.315-.006.628-.008h.066c0,.044,0,.088,0,.131h-.077l-.272.005c-.189,0-.489,0-.794,0l.014.465c0,.05,0,.1,0,.15l.243-.009.211-.007c.21,0,.419-.007.628-.008h.066c0,.044,0,.088,0,.131h-.077l-.272.005c-.189,0-.49,0-.794,0h-.006q.005.241.01.483l.111,0,.212-.007q.315-.006.628-.008h.066c0,.044,0,.087,0,.131h-.077l-.272.005c-.163,0-.408,0-.668,0q.006.313.012.627v.016l1.056.017.061,1.123h.275l.061-1.24,1.01-.037q0-.145-.006-.29l-.213,0c-.269,0-.538.013-.807.027l-.058,0,0-.136.285.006c.285,0,.536,0,.793-.012q0-.259-.009-.518h-.089c-.269,0-.539.013-.808.027l-.058,0,0-.136.285.006c.24,0,.455,0,.67-.008q-.005-.328-.01-.656h-.1c-.269,0-.538.013-.807.027l-.057,0,0-.136.285.006c.245,0,.464,0,.683-.008q0-.257-.006-.514v-.1h-.117c-.269,0-.538.013-.807.027l-.058,0,0-.136.285.006c.25,0,.474,0,.7-.009l0-.378q0-.205-.007-.411h-.134c-.269,0-.538.013-.807.027l-.058,0,0-.136.285.006c.256,0,.484,0,.715-.01q-.008-.384-.02-.768h-.14c-.269,0-.538.013-.807.027l-.058,0,0-.136.284.006c.258,0,.488,0,.72-.009q-.011-.365-.023-.73l0-.058.134,0,0,.656q0,.065,0,.13l.2-.008.2-.007q.3-.006.594-.009h.066c0,.044,0,.088,0,.131l-.076,0-.257.005c-.173,0-.445,0-.723,0,0,.263.006.526.01.764l.212-.008.2-.007c.2,0,.4-.007.594-.009h.066c0,.044,0,.088,0,.131l-.076,0-.257.005c-.176,0-.455,0-.739,0,0,.151.006.29.009.407s.007.251.011.376l.219-.009.2-.007q.3-.006.594-.009h.066c0,.044,0,.088,0,.131l-.076,0-.257.005c-.178,0-.459,0-.745,0q.009.306.018.612l.221-.009.2-.007c.2,0,.4-.007.594-.009h.066c0,.044,0,.088,0,.131l-.076,0-.257.005c-.178,0-.46,0-.747,0l.013.491c0,.053,0,.106,0,.16l.226-.009.2-.007q.3-.006.594-.009h.066c0,.044,0,.088,0,.131l-.076,0-.257.005c-.179,0-.462,0-.75,0h0q0,.256.01.512l.1,0,.2-.007c.2,0,.4-.007.594-.009h.066c0,.044,0,.088,0,.131l-.076,0-.257.005c-.154,0-.384,0-.628,0,0,.095,0,.189.005.284l.965-.035-.031,1.9-4.769.116-.092-1.86,1.2.02v-.036l-.014-.605-.228,0c-.285,0-.57.013-.854.027l-.058,0,0-.136.3.006c.3,0,.569,0,.842-.012q-.005-.245-.01-.489h-.1c-.285,0-.57.013-.854.027l-.057,0,0-.136.3.006c.255,0,.483,0,.712-.007q-.005-.31-.01-.62h-.111c-.285,0-.57.013-.854.027l-.058,0,0-.136.3.006c.26,0,.493,0,.726-.008q0-.244-.006-.487v-.1H690.7c-.285,0-.57.013-.854.026l-.058,0,0-.136.3.006c.266,0,.5,0,.742-.008l0-.358c0-.13,0-.259-.007-.389h-.145c-.285,0-.57.013-.854.027l-.058,0,0-.136.3.006c.272,0,.514,0,.759-.009q-.008-.364-.02-.728h-.152c-.285,0-.57.013-.854.027l-.057,0,0-.136.3.006C690.3,928.746,690.546,928.742,690.792,928.734Zm4.577-.584-.061,6.857-.489-.039.092-6.818Zm4.312.714q-.014-.333-.029-.666l0-.058.134,0,.009.607c0,.039,0,.078,0,.117l.306-.009.287-.007q.415-.006.832-.008l.008-.656.135-.028-.011,6.341-5.82.5.09-6.856.124.028-.012.752.256.013c.33.015.624.02.922.022q-.008-.348-.016-.7V928.2h.134c0,.019,0,.038,0,.058l0,.574v.125h.264l.252,0q.35.006.7.016v-.106h.028l.014-.714.147.014-.011.7.2,0c.3,0,.627,0,.834,0Zm-22.175,3.825q-.009.289-.017.579l1.4.035.039-.552C678.459,932.733,677.991,932.714,677.506,932.689Zm19.435.119h0l-.283-.012c-.326-.011-.653-.011-.979-.009l-.008.511,1.279-.049Q696.944,933.028,696.942,932.807Zm-21.2.417,1.614.04q.008-.292.016-.583l-.029,0-.388-.02c-.4-.019-.8-.029-1.2-.036Zm-3.179.039,1.063-.079.012-.474h-.019l-.35-.019c-.238-.012-.475-.02-.713-.026Zm7.245-.078,1.257.069.013-.544h-.019l-.349-.019c-.3-.015-.6-.024-.895-.03Zm17.267-.373q0,.215,0,.431l1.1-.043.007-.357-.306-.006C697.687,932.834,697.389,932.825,697.075,932.813Zm-26.537-.095q-.006.216-.012.431l1.4.075.009-.443C671.47,932.765,671.013,932.744,670.538,932.718Zm-4.12.507.915-.053.011-.469-.183-.013c-.25-.016-.5-.023-.751-.028Zm33.365-.667h-.013l-.322,0c-.362,0-.725.011-1.087.024l-.01.635,1.45-.086Zm-26.011.16q-.006.228-.013.456l1.4-.1,0-.288C674.7,932.765,674.247,932.744,673.772,932.718Zm-6.293-.005q-.006.226-.013.451l.97-.056.012-.339-.188-.009C668.072,932.751,667.781,932.734,667.479,932.713Zm1.569.357,1.346.073.011-.432h-.02l-.349-.019c-.326-.017-.652-.026-.978-.032Zm32.13-.518-.33,0c-.226,0-.569,0-.93,0q.008.281.016.562l1.238-.073Zm-4.108-.343q0,.242.005.484h.148l.253,0c.239,0,.479.01.718.016l.009-.467C697.829,932.237,697.457,932.226,697.069,932.209Zm-.138-1.439-.164-.007c-.34-.012-.68-.01-1.02-.008h-.041l-.029,1.9.246.013c.366.016.687.021,1.017.022q0-.245,0-.489l-.168-.007c-.327-.012-.655-.011-.983-.009h-.058l0-.135.333.018c.312.015.59.02.872.023q0-.312,0-.623l-.184-.008c-.327-.012-.655-.011-.983-.009h-.058l0-.135.333.018c.318.015.6.021.888.023q0-.245,0-.49Zm-23.144,1.366q-.006.231-.012.462l.2,0,.312.009q.441.017.883.036l.006-.446c-.442-.017-.884-.038-1.345-.064Zm-3.234,0q-.006.231-.012.462l.2,0,.312.009q.44.017.882.036l.009-.446c-.443-.017-.886-.038-1.347-.064Zm-3.059,0q-.006.232-.012.464l.19.005.226.007.555.027.016-.444-.06,0c-.2-.01-.522-.029-.846-.052Zm10.029-.05q-.007.244-.014.488l.226.005.347.009.858.033.033-.47c-.46-.018-.919-.038-1.4-.063Zm-8.453,0-.01.455.072,0c.329.019.681.037.907.043l.368.009q.006-.233.013-.466l-.175-.01C669.854,932.1,669.462,932.091,669.07,932.084Zm10.752,0-.006.459c.326.019.674.036.9.042l.368.009q.006-.233.013-.466l-.175-.01C680.554,932.1,680.188,932.092,679.822,932.085Zm-7.275,0,.006.466c.27.015.536.027.719.032l.368.009q.006-.233.013-.466l-.175-.01C673.169,932.1,672.858,932.095,672.548,932.088Zm-6.144,0,.006.452.1.008c.3.022.566.034.836.043q.006-.234.013-.469l-.05,0C667.009,932.1,666.706,932.094,666.4,932.088Zm9.37-.064-.012.476.191.011c.365.02.756.038,1.007.045l.417.01q.007-.246.015-.492l-.2-.011c-.466-.022-.934-.031-1.4-.04Zm23.975-.75h-.174c-.386,0-.773.012-1.16.026h-.034l-.018,1.15.25,0c.3,0,.627,0,.834,0l.332-.009q-.007-.233-.013-.467h-.156c-.386,0-.773.012-1.16.026l-.058,0v-.135l.383.006c.3,0,.627,0,.834,0l.154,0Q699.756,931.571,699.749,931.274Zm1.435.7-.175,0c-.257,0-.664,0-1.077,0H699.9q.007.231.014.462l.176,0,.287-.007q.4-.006.8-.008Zm-4.126-.5.008.464c0,.052,0,.1,0,.154h.247l.243,0q.322.006.646.016l.012-.6C697.835,931.5,697.454,931.493,697.058,931.476Zm-26.49-.041-.008.446,0,.144.392.01.312.009.684.028.011-.569c-.447-.018-.893-.038-1.357-.065Zm3.234,0-.008.446q0,.072,0,.144l.392.01.312.009.681.028.007-.57c-.444-.018-.888-.038-1.351-.065Zm-6.293,0-.008.45c0,.047,0,.093,0,.14l.325.009.226.007.427.021.021-.568-.086,0c-.2-.01-.522-.029-.846-.052Zm1.577-.049-.013.575.269.017c.329.02.681.037.907.043l.174,0q.009-.3.019-.593l-.194-.011C669.861,931.4,669.474,931.388,669.086,931.381Zm3.452,0,.008.586.03,0c.329.02.681.037.907.043l.174,0q.009-.3.019-.593l-.194-.011C673.168,931.4,672.853,931.391,672.538,931.385Zm7.293,0-.007.579.193.012c.329.02.681.037.907.043l.174,0q.009-.3.019-.593l-.194-.011C680.56,931.4,680.2,931.389,679.831,931.382Zm-13.437,0,.008.571.259.021c.25.019.478.03.7.038q.009-.3.02-.595l-.073,0c-.3-.02-.608-.026-.912-.031Zm11.146-.037-.01.469c0,.051,0,.1,0,.152l.442.01.347.009.668.025.042-.6c-.476-.018-.951-.039-1.445-.065Zm-1.747-.058-.016.6.408.024c.365.02.756.038,1.007.045l.2.005q.01-.313.021-.625l-.223-.012C676.726,931.308,676.26,931.3,675.793,931.29Zm25.4-.019-.219,0c-.257,0-.664,0-1.077,0h-.022l.017.445c0,.048,0,.1,0,.144l.355-.01.287-.007.648-.007Zm-4.149-.5q.006.292.012.584h.24l.243,0c.226,0,.454.01.681.017l.011-.568-.234,0c-.226,0-.584-.016-.947-.031Zm-26.464-.008q0,.277-.009.554l.382.009.312.009.694.028.011-.534c-.45-.018-.9-.038-1.367-.065Zm3.234,0q0,.277-.009.554l.382.009.312.009.686.028.007-.534c-.446-.018-.892-.038-1.356-.065Zm-6.293,0q0,.277-.009.555l.311.009.226.007.453.022.019-.533-.11-.005c-.2-.01-.522-.029-.846-.052Zm12.32-.049-.007.544.188.012c.329.02.681.037.907.043l.194.005q.008-.234.017-.467l0-.09-.215-.012C680.565,930.73,680.2,930.721,679.839,930.714Zm-7.31,0,.007.551.043,0c.329.02.681.037.907.043l.194.005q.008-.234.017-.467l0-.09-.215-.012C673.167,930.732,672.848,930.723,672.529,930.717Zm-3.428,0-.012.541.256.016c.329.02.681.037.907.043l.194.005q.008-.234.017-.467l0-.09-.215-.012C669.869,930.729,669.485,930.72,669.1,930.713Zm-2.716,0,.007.535.268.022c.259.019.493.031.726.039q.008-.231.017-.463l0-.1-.1-.007c-.3-.019-.608-.026-.912-.031Zm11.167-.066q-.005.292-.01.584l.43.01.347.009.715.027.04-.562c-.491-.019-.98-.04-1.49-.067Zm-1.742-.058-.015.566.393.023c.365.02.756.038,1.007.045l.222.005q.009-.245.018-.491l0-.1-.245-.013C676.735,930.61,676.273,930.6,675.811,930.593Zm23.924.014h-.193c-.383,0-.766.012-1.149.026v.05h.011l0,.131h-.01l-.005.353.356.006c.3,0,.627,0,.834,0l.173,0q-.005-.234-.01-.467Zm1.465,0-.26,0c-.257,0-.664,0-1.077,0h-.016l.023.554.346-.01.287-.007.691-.007Zm-30.605-.663c0,.137-.007.263-.008.37s0,.228-.006.342l.374.009.312.009.7.029.014-.693c-.454-.018-.907-.039-1.379-.066Zm3.234,0c0,.137-.007.263-.009.37s0,.228-.006.342l.375.009.312.009.691.028.009-.693c-.448-.018-.9-.038-1.362-.065Zm-6.293,0c0,.139-.007.265-.009.373s0,.226-.006.339l.3.009.226.007.477.023.025-.691-.14-.006c-.2-.01-.522-.029-.846-.052Zm29.493-.025c0,.144,0,.275.005.388l.007.36h.293l.252,0q.323.006.647.014l.015-.729-.275,0C697.748,929.939,697.392,929.928,697.029,929.913Zm-.1,0-.184-.008c-.34-.012-.68-.01-1.02-.008h0l-.011.728.327.017c.321.014.607.02.9.022V930.3C696.93,930.171,696.929,930.04,696.928,929.909Zm-24.41-.019.009.708.055,0c.329.019.681.037.907.043l.215.006.012-.342q.006-.186.011-.373l-.238-.013C673.166,929.905,672.842,929.9,672.518,929.89Zm-3.4,0-.016.7.245.016c.329.019.681.037.907.043l.215.006.012-.342q.006-.186.011-.373l-.238-.013C669.878,929.9,669.5,929.894,669.12,929.887Zm10.73,0-.009.7.183.012c.329.019.681.037.907.043l.215.006.012-.342q.006-.186.011-.373l-.238-.013C680.571,929.9,680.21,929.895,679.85,929.888Zm-13.475,0,.009.693.277.023c.268.02.509.032.751.04l.012-.338q.006-.189.011-.378l-.124-.009c-.3-.019-.608-.026-.912-.031Zm11.2-.1c0,.144-.007.276-.01.389s0,.24-.007.36l.421.01.346.01.761.029.051-.728c-.51-.019-1.017-.041-1.546-.069Zm-1.738-.058-.019.731.379.023c.365.02.756.038,1.007.045l.245.006.013-.36q.007-.2.012-.391l-.27-.014C676.745,929.748,676.289,929.738,675.833,929.73Zm23.883.052H699.5c-.365,0-.73.011-1.1.024l-.011.7.312,0c.3,0,.627,0,.834,0l.192,0-.007-.342C699.723,930.031,699.72,929.906,699.716,929.782Zm1.494,0-.311,0c-.257,0-.664,0-1.077,0h0c0,.137.008.262.013.369s.009.228.014.343l.34-.01.287-.007.732-.007Zm-30.588-.644c-.009.239-.017.478-.023.694l.361.009.312.009.716.029L672,929.2C671.547,929.181,671.094,929.161,670.621,929.133Zm3.234,0c-.009.239-.017.478-.023.694l.361.009.312.009.7.029.009-.675C674.766,929.181,674.32,929.16,673.855,929.133Zm-6.293,0c-.009.238-.017.477-.023.694l.282.008.226.007.507.025.025-.674-.17-.008c-.2-.01-.522-.029-.846-.052Zm12.3-.051-.008.685.177.011c.329.02.681.037.907.043l.237.006q.008-.348.014-.7l-.251-.014C680.577,929.095,680.218,929.086,679.86,929.079Zm-7.352,0,.009.69.07,0c.329.02.681.037.907.043l.237.006q.009-.348.014-.7l-.251-.014C673.166,929.1,672.837,929.088,672.508,929.081Zm-3.369,0-.016.682.23.015c.329.02.681.037.907.043l.237.006q.009-.348.014-.7l-.251-.014C669.887,929.094,669.513,929.085,669.139,929.078Zm-2.774,0,.009.675.288.024c.278.021.527.033.777.041q.008-.349.014-.7l-.14-.01c-.3-.019-.608-.026-.912-.031Zm30.661-.012c0,.251,0,.5,0,.729h.283l.253,0q.343.006.687.016l.014-.711-.314-.006C697.729,929.095,697.381,929.084,697.025,929.069Zm-.111,0-.193-.008c-.329-.012-.659-.011-.989-.008l-.011.712.291.015c.328.015.619.02.914.022Q696.922,929.431,696.914,929.065Zm-19.314-.12c-.01.251-.018.5-.025.73l.406.01.347.009.817.032.05-.71C678.668,929,678.146,928.975,677.6,928.945Zm22.086.029h-.226c-.347,0-.695.01-1.042.022l-.011.681.258,0c.3,0,.627,0,.834,0l.213-.006Q699.7,929.323,699.687,928.974Zm-23.832-.088-.018.714.361.022c.365.02.756.038,1.007.045l.269.007q.009-.366.016-.733l-.284-.015C676.756,928.9,676.305,928.894,675.855,928.886Zm25.364.083-.36,0c-.254,0-.653,0-1.061,0,.005.239.011.478.017.694l.328-.009.287-.007q.391-.005.783-.008Z" transform="translate(-665.471 -927.98)" fill="#cbc3c2" fill-rule="evenodd"/>
    </g>
    <g id="Group_26" data-name="Group 26" transform="translate(935.269 380.492)">
      <path id="Path_26" data-name="Path 26" d="M2157.9,7712.567l-.412-.006,4.3-.094Zm.127-1.561h.012c4.456-.207,10.052.339,14.505.143l3.706-.163,3.7-.163,2.824-.125h.028c0,.09,0,.181,0,.273h-.033l-2.824.129a152.485,152.485,0,0,1-17.145.155l-4.9.135h-.026v0l0,.075h.028c4.456-.206,10.187.228,14.64.032l3.706-.163,3.7-.164,2.824-.125h.031c0,.1,0,.2,0,.305v.079h-.036l-2.824.128c-5.675.261-10.626.476-17.11.21l-5.173.165h0l-.023.059v.02h.028c4.457-.206,10.424.145,14.878-.052l3.706-.163,3.7-.163,2.824-.125h.035l0,.407-.025,0-2.546.065-22.787.479.185-.47,0-.059h.025l.212-.541v0h0Zm34.86,1,2.29.109-1.393-.025Zm-2.813-.261.109.011.009.019.02.043-.081.056-.019-.045-.037-.084-.078-.006-7.094.181,0,.1v.049h-.093v-.147h.09l-.01-.406h.365l2.5-.012,4.187-.04Zm.109.011-.136-.291,1.115.051a22.324,22.324,0,0,1,3.822.134l.176.353-4.628-.214Zm4.22-1.27h0c-1.461-.259-2.718.082-4.179-.175-.237-.042-.461.041-.7,0h-.01l-.166-.361.666.116c1.467.259,2.832-.023,4.3.232l.094.188.028,0-.005.04.14.278,0,0,.032,0-.006.052.147.294.008,0,.032,0-.007.058.168.338.033,0,.031,0-.009.078-.012,0-.043-.085a11.985,11.985,0,0,0-3.775-.126c-.221-.041-.88-.018-1.156-.051-.045-.1-.09-.193-.136-.29h0l1.318.083a11.125,11.125,0,0,1,3.576.067l0-.021-.033-.064a9.938,9.938,0,0,0-3.54-.062c-.236-.042-1.082-.042-1.318-.083h-.045l-.12-.258h1.106c1.47.258,2.3-.124,3.767.135l0-.025-.028-.059c-1.458-.255-2.277.125-3.736-.131a3.268,3.268,0,0,0-.559,0h-.043a3.566,3.566,0,0,1-.545,0c-.044-.1-.089-.192-.134-.288h.667c1.47.258,2.737-.081,4.207.178l0-.037Zm-4.619.609-4.024-.057-2.5.013-.375,0c0,.126.005.255.008.381h.366l2.5-.014,4.15-.038-.068-.154Zm-31.591-.509h0c4.456-.207,9.894.41,14.347.214l3.706-.166,3.7-.162,2.824-.125h.023c0,.092,0,.183,0,.275h-.028l-2.824.129a127.263,127.263,0,0,1-17.269.07l-4.622.108-.031.079h-.015l0-.077.028,0h.021Zm31.438.172-3.871-.072-2.5.012-.382,0c0,.092,0,.183.005.275l.376,0,2.5-.013,3.986.056Zm-.166-.368-3.705-.058-2.5.014h-.388c0,.092,0,.183,0,.273h.383l2.5-.014,3.833.07C2189.546,7710.579,2189.5,7710.483,2189.46,7710.387Zm-31.145-.126h.024c4.456-.208,9.747.325,14.2.128l3.706-.165,3.7-.163,2.824-.125h.017c0,.11,0,.219,0,.331h-.023l-2.824.129c-5.675.259-10.987.364-16.874.072l-4.851.038-.031.078-.023,0,0-.079h.056Zm30.939-.323-3.5-.014-2.5.011-.395,0c0,.11,0,.219.005.329h.389l2.5-.015,3.666.057C2189.367,7710.184,2189.311,7710.061,2189.255,7709.938Zm-16.736-7.316-4.576,3.639.1.02.024.518-2.882-.642,7.3-5.637.062-2.484,2.046-.092s.009.067.017.178h.418v.047c.051.012.087.025.082.041a5.042,5.042,0,0,0-.062,1.216l7.019,2.73,2.071.788s.143.086.365.214l1.618.854c.137.063.266.119.382.159.084.031.91.506,1.51.843l.639.337a21.079,21.079,0,0,1,1.876.993l.833.44.175.049.285.394-.287-.07v.042l1.364.294.74,1.483.011,0,0,.017.406.815h0l.031,0-.006.053.169.338.032.006.031,0-.009.08-.01,0-.043-.087c-1.449-.247-2.8.032-4.25-.224l-.709-.125h0l-.1-.212-.094-.209.635.111c1.47.258,2.873.087,4.343.347l0-.026-.03-.058c-1.459-.257-2.852-.084-4.311-.341l-.68-.121-.134-.295c-.022-.051-.045-.1-.068-.151l.661.116c1.47.259,2.828.183,4.3.442l.009-.077-.031-.007c-1.461-.256-2.809-.182-4.27-.438l-.706-.125c-.067-.148-.135-.3-.2-.451l.024.014c1.47.259,3.527.42,5,.68l.008-.062-.01-.019-.02,0c-1.46-.257-3.508-.418-4.969-.677a.489.489,0,0,1-.065-.012l-.018-.039c-.054-.12-.108-.241-.163-.359l.24.056c1.47.258,3.323.491,4.794.749l.009-.076-.031-.006c-1.461-.257-3.3-.487-4.766-.745-.235-.04-.058-.029-.287-.068l-.138-.3.42.071c1.47.259,3.087.463,4.557.721l.01-.077-.032-.007c-1.461-.257-3.068-.458-4.529-.715-.23-.041-.246-.042-.465-.08-.054-.121-.108-.237-.163-.358l.623.11,4.41.775.009-.077-.031-.005-4.382-.772-.668-.118c-.086-.188-.147-.319-.233-.507l-.056-.126h-.016l-.186-.009-4.361-.119,0-.1,4.359.223.192,0-.006.006h.016l2.726.555-6.209-1.537-8.919-4.873-.117.047.04,6.129,7.483-.45.017,0c0,.294.008.479.012.782l-2.789.127q-8.512.39-17.021.767l-3.736.163-.031.081h-.01l0-.079h.043l.173-.438,13.158-.789Zm-13.484,5.807,0,0c.066,0,.133,0,.2-.008q1.461-.067,2.938-.121l.749-.015,1.771-.075c2.626-.092,5.259-.175,7.845-.29l3.706-.163,3.7-.162,2.794-.125c0,.1,0,.2.005.3l-2.8.127q-8.512.39-17.021.767l-4.011.108h-.013l-.013.034v.045h.028c4.456-.206,9.172-.357,13.625-.553l3.706-.164,3.7-.162,2.8-.125.007.356-2.809.129q-7.425.341-14.846.671c-1.083.036-2.164.073-3.233.112l-3.1.05h-.021l-.007.017,0,.061h.028c1.014-.048,2.05-.089,3.1-.128l1.059-.017,2.174-.1c2.515-.084,5.038-.165,7.443-.271l3.706-.162,3.7-.163,2.81-.125v.075q0,.183.008.362l-2.82.129-11.391.518c-2.916.053-5.919.064-8.75.166l3.121.083,5.63-.249c1.356-.026,2.694-.059,3.987-.118l3.706-.163,3.7-.164,2.82-.125c0,.146.005.293.009.439h-.006l-2.824.129c-3.1.141-6.147.325-9.218.457-3.628.073-7.559-.057-11.145.051l3.409.12c2.627.014,5.19-.061,7.735-.171q.922-.019,1.814-.057l3.706-.164,3.7-.162,2.824-.125h.006c0,.182.006.363.009.546h-.016l-2.824.129c-5.675.26-10.931.351-16.6.126l-4.995.067-.031.079h0l0-.077.028,0h.01l.132-.337v-.009h0l.256-.654v-.017h.007l.141-.358v-.034h.015Zm-.552,1.407,0,.009,0,.069h.028q.53-.023,1.073-.041l-1.075-.038Zm30.536-.411-3.264-.127-2.5.013h-.4l0,.35c0,.065,0,.131,0,.2h.395l2.5-.014,3.461.016Zm-29.216.106q-.585.021-1.158.047h-.028l0-.079h.028Zm28.97-.637-3.018-.113-2.5.014h-.406c0,.071,0,.141,0,.211l0,.226h.4l2.5-.014,3.224.125C2188.911,7709.193,2188.842,7709.042,2188.773,7708.894Zm-.265-.572-2.753-.057-2.5.013h-.411c0,.146,0,.292,0,.438l.406,0,2.5-.014,2.978.11c-.046-.1-.092-.2-.138-.3Zm-29.352-.2h.018q6.684-.31,13.366-.608l3.706-.163,3.7-.163,2.789-.124c0,.111,0,.22,0,.329l-2.795.126q-7.626.35-15.249.691-1.262.042-2.52.09l-3.109.051-.031.08h-.023l0-.076.028,0h.029Zm29.146-.245-2.547-.042-2.5.014h-.416c0,.119,0,.238,0,.356l.411,0,2.5-.014,2.714.057-.117-.253Zm-.18-.395-2.366-.028-2.547.011-.376,0c0,.1,0,.2,0,.3l.416,0,2.5-.015,2.508.044C2188.217,7707.688,2188.169,7707.585,2188.121,7707.479Zm-.2-.448-2.162.012-2.5.013h-.427c0,.11,0,.22,0,.33l.375,0,2.55-.014,2.328.028C2188.028,7707.278,2187.972,7707.155,2187.917,7707.031Zm-.232-.706-.068.047.022.049.241.53-2.124.01-2.5.014-.427,0c0-.292-.008-.467-.013-.751v-.026Zm-14.933-8.057v8.526l2.186-.137-.163-8.06-.455.025.006-.39Z" transform="translate(-2157.449 -7697.944)" fill="#cbc3c2" fill-rule="evenodd"/>
    </g>
    <g id="Group_27" data-name="Group 27" transform="translate(884.544 405.458)">
      <path id="Path_27" data-name="Path 27" d="M748.1,1702.507a2.168,2.168,0,1,0,2.02,2.306A2.168,2.168,0,0,0,748.1,1702.507Z" transform="translate(-745.79 -1702.502)" fill="#cbc3c2" fill-rule="evenodd"/>
    </g>
    <g id="Group_28" data-name="Group 28" transform="translate(989.091 405.458)">
      <path id="Path_28" data-name="Path 28" d="M748.1,1702.507a2.168,2.168,0,1,0,2.02,2.306A2.168,2.168,0,0,0,748.1,1702.507Z" transform="translate(-745.79 -1702.502)" fill="#cbc3c2" fill-rule="evenodd"/>
    </g>
    <g id="Group_29" data-name="Group 29" transform="translate(884.562 350.896)">
      <path id="Path_29" data-name="Path 29" d="M855.388,788.829a56.779,56.779,0,0,0-43.439,39.39.609.609,0,1,0,1.166.352,55.656,55.656,0,0,1,101.6-11.585.609.609,0,0,0,1.058-.6A56.8,56.8,0,0,0,855.388,788.829Z" transform="translate(-811.922 -787.745)" fill="#cbc3c2" fill-rule="evenodd"/>
    </g>
    <g id="Group_30" data-name="Group 30" transform="translate(888.705 354.986)">
      <path id="Path_30" data-name="Path 30" d="M932,856.314a52.761,52.761,0,0,0-50.611,36.518l.386.126a52.543,52.543,0,0,1,95.212-10.38l.35-.207A53.236,53.236,0,0,0,932,856.314Z" transform="translate(-881.392 -856.313)" fill="#cbc3c2" fill-rule="evenodd"/>
    </g>
    <g id="Group_31" data-name="Group 31" transform="translate(993.605 392.155) rotate(180)">
      <path id="Path_31" data-name="Path 31" d="M43.466,40.175A56.779,56.779,0,0,1,.026.785.609.609,0,1,1,1.192.433,55.565,55.565,0,0,0,43.7,38.98a55.593,55.593,0,0,0,59.087-26.962.609.609,0,0,1,1.058.6A56.8,56.8,0,0,1,43.466,40.175Z" transform="translate(0 0)" fill="#cbc3c2" fill-rule="evenodd"/>
    </g>
    <g id="Group_32" data-name="Group 32" transform="translate(989.462 391.63) rotate(180)">
      <path id="Path_32" data-name="Path 32" d="M50.611,36.644A52.761,52.761,0,0,1,0,.126L.386,0A52.355,52.355,0,0,0,50.609,36.237,52.824,52.824,0,0,0,95.6,10.38l.35.207A53.235,53.235,0,0,1,50.611,36.644Z" transform="translate(0)" fill="#cbc3c2" fill-rule="evenodd"/>
    </g>
  </g>
</svg>
