<svg xmlns="http://www.w3.org/2000/svg" width="39" height="19.504" viewBox="0 0 39 19.504">
  <g id="booked" transform="translate(0 -127.972)">
    <g id="Group_115" data-name="Group 115" transform="translate(0 127.971)">
      <g id="Group_114" data-name="Group 114" transform="translate(0 0)">
        <path id="Path_228" data-name="Path 228" d="M38.915,141.424l-6.5-13a.8.8,0,0,0-.886-.434l-24.37,4.873-.055.013a.805.805,0,0,0-.414.265l0,0c-.024.031-.049.065-.072.1v0a0,0,0,0,0,0,0c-.011.02-.023.039-.033.06L.085,146.3a.813.813,0,1,0,1.454.726l5.774-11.546,5.772,11.547a.808.808,0,0,0,.886.434l24.375-4.875a.813.813,0,0,0,.569-1.16Zm-24.653,4.318L8.516,134.249,31.238,129.7,36.984,141.2Z" transform="translate(0 -127.971)" fill="#e5d9d7"/>
      </g>
    </g>
    <g id="Group_117" data-name="Group 117" transform="translate(13.001 132.848)">
      <g id="Group_116" data-name="Group 116" transform="translate(0 0)">
        <path id="Path_229" data-name="Path 229" d="M188.539,192.654a.821.821,0,0,0-.956-.639l-16.25,3.25a.812.812,0,0,0,.156,1.609.9.9,0,0,0,.161-.015l16.25-3.25A.81.81,0,0,0,188.539,192.654Z" transform="translate(-170.678 -191.999)" fill="#e5d9d7"/>
      </g>
    </g>
    <g id="Group_119" data-name="Group 119" transform="translate(14.626 137.723)">
      <g id="Group_118" data-name="Group 118" transform="translate(0 0)">
        <path id="Path_230" data-name="Path 230" d="M201.747,256.654a.82.82,0,0,0-.956-.639l-8.125,1.625a.812.812,0,0,0,.156,1.609.9.9,0,0,0,.161-.015l8.125-1.625A.81.81,0,0,0,201.747,256.654Z" transform="translate(-192.011 -255.999)" fill="#e5d9d7"/>
      </g>
    </g>
    <g id="Group_121" data-name="Group 121" transform="translate(0.001 143.485)">
      <g id="Group_120" data-name="Group 120" transform="translate(0 0)">
        <path id="Path_231" data-name="Path 231" d="M13.439,332.29a.818.818,0,0,0-.956-.639L.666,334.014a.812.812,0,0,0,.156,1.609.774.774,0,0,0,.161-.016L12.8,333.246A.81.81,0,0,0,13.439,332.29Z" transform="translate(-0.011 -331.634)" fill="#e5d9d7"/>
      </g>
    </g>
  </g>
</svg>
