<svg id="tripadvisor-logotype" xmlns="http://www.w3.org/2000/svg" width="17.099" height="17.099" viewBox="0 0 17.099 17.099">
  <g id="Group_36" data-name="Group 36" transform="translate(0)">
    <path id="Path_216" data-name="Path 216" d="M62.275,46.07a1.039,1.039,0,1,0,1.033,1.039A1.043,1.043,0,0,0,62.275,46.07Zm0,1.566a.527.527,0,1,1,.524-.525A.525.525,0,0,1,62.275,47.636Z" transform="translate(-50.518 -38.011)" fill="#001631"/>
    <path id="Path_217" data-name="Path 217" d="M18.423,37.514a2.565,2.565,0,1,0,2.571,2.575A2.568,2.568,0,0,0,18.423,37.514Zm.041,4.126a1.59,1.59,0,1,1,1.514-1.593A1.593,1.593,0,0,1,18.464,41.639Z" transform="translate(-13.086 -30.951)" fill="#001631"/>
    <path id="Path_218" data-name="Path 218" d="M8.55,0A8.55,8.55,0,1,0,17.1,8.55,8.55,8.55,0,0,0,8.55,0Zm4.915,11.869a3.172,3.172,0,0,1-1.716.492,2.983,2.983,0,0,1-.77-.1A3.233,3.233,0,0,1,9.4,11.33c-.058-.061-.112-.125-.173-.194l-.689,1.027-.677-1.012-.023.011a.112.112,0,0,0-.013.014,3.2,3.2,0,0,1-2,1.131,3.118,3.118,0,0,1-1.33-.075A3.228,3.228,0,0,1,2.159,9.618a3.113,3.113,0,0,1,.058-1.274,3.243,3.243,0,0,1,.5-1.089.126.126,0,0,0,.014-.094,3.6,3.6,0,0,0-.452-.972c-.049-.077-.107-.149-.161-.223V5.941a.251.251,0,0,0,.032,0H4.093a.166.166,0,0,0,.084-.027,6.96,6.96,0,0,1,1.448-.7,7.886,7.886,0,0,1,1.124-.3,9,9,0,0,1,1.118-.147A9.493,9.493,0,0,1,10,4.857,6.905,6.905,0,0,1,11.06,5.1a7.245,7.245,0,0,1,1.717.783.262.262,0,0,0,.132.038c.632,0,1.264,0,1.9,0,.051,0,.1.005.152.008,0,.012,0,.017,0,.02l-.089.136a3.89,3.89,0,0,0-.506,1.053.122.122,0,0,0,.013.115,3.224,3.224,0,0,1-.911,4.608Z" fill="#001631"/>
    <path id="Path_219" data-name="Path 219" d="M25.375,46.07a1.04,1.04,0,1,0,1.05,1.036A1.046,1.046,0,0,0,25.375,46.07Zm.013,1.571a.532.532,0,1,1,0-1.064.532.532,0,1,1,0,1.064Z" transform="translate(-20.086 -38.011)" fill="#001631"/>
    <path id="Path_220" data-name="Path 220" d="M55.048,37.567a2.567,2.567,0,1,0,2.622,2.564A2.562,2.562,0,0,0,55.048,37.567Zm.115,4.116a1.59,1.59,0,1,1,1.526-1.594A1.593,1.593,0,0,1,55.164,41.684Z" transform="translate(-43.345 -30.995)" fill="#001631"/>
    <path id="Path_221" data-name="Path 221" d="M35.349,31.8a3.252,3.252,0,0,1,2.013-.853,7.309,7.309,0,0,0-2.861-.6,7.925,7.925,0,0,0-3.261.582,3.275,3.275,0,0,1,3.086,2.8A3.264,3.264,0,0,1,35.349,31.8Z" transform="translate(-25.775 -25.037)" fill="#001631"/>
  </g>
</svg>
