<svg id="tripadvisor-logotype" xmlns="http://www.w3.org/2000/svg" width="31.977" height="31.978" viewBox="0 0 31.977 31.978">
  <g id="Group_36" data-name="Group 36">
    <path id="Path_216" data-name="Path 216" d="M63.186,46.07a1.944,1.944,0,1,0,1.931,1.943A1.951,1.951,0,0,0,63.186,46.07Zm0,2.928a.985.985,0,1,1,.981-.982A.982.982,0,0,1,63.186,49Z" transform="translate(-41.199 -30.999)" fill="#fff"/>
    <path id="Path_217" data-name="Path 217" d="M20.653,37.514a4.8,4.8,0,1,0,4.807,4.816A4.8,4.8,0,0,0,20.653,37.514Zm.077,7.716a2.974,2.974,0,1,1,2.832-2.978A2.98,2.98,0,0,1,20.73,45.229Z" transform="translate(-10.672 -25.242)" fill="#fff"/>
    <path id="Path_218" data-name="Path 218" d="M15.988,0A15.989,15.989,0,1,0,31.977,15.989,15.989,15.989,0,0,0,15.988,0ZM25.18,22.2a5.931,5.931,0,0,1-3.208.921,5.578,5.578,0,0,1-1.439-.185,6.045,6.045,0,0,1-2.956-1.744c-.108-.114-.209-.233-.323-.362l-1.289,1.921L14.7,20.854c-.029.015-.037.017-.043.021a.209.209,0,0,0-.025.027A5.978,5.978,0,0,1,10.9,23.017a5.831,5.831,0,0,1-2.487-.14,6.036,6.036,0,0,1-4.371-4.89A5.822,5.822,0,0,1,4.146,15.6a6.066,6.066,0,0,1,.938-2.036.235.235,0,0,0,.027-.175,6.732,6.732,0,0,0-.845-1.818c-.091-.144-.2-.278-.3-.417V11.11a.47.47,0,0,0,.06.007q1.814,0,3.629,0a.31.31,0,0,0,.157-.05,13.017,13.017,0,0,1,2.707-1.314,14.747,14.747,0,0,1,2.1-.57,16.838,16.838,0,0,1,2.09-.274,17.753,17.753,0,0,1,3.995.176,12.913,12.913,0,0,1,1.979.463,13.549,13.549,0,0,1,3.212,1.465.49.49,0,0,0,.246.071c1.182.005,2.364,0,3.546,0,.1,0,.19.01.285.015,0,.023,0,.033,0,.038l-.166.254a7.275,7.275,0,0,0-.946,1.97.228.228,0,0,0,.025.215,6.029,6.029,0,0,1-1.7,8.618Z" fill="#fff"/>
    <path id="Path_219" data-name="Path 219" d="M26.272,46.07a1.944,1.944,0,1,0,1.964,1.937A1.956,1.956,0,0,0,26.272,46.07Zm.025,2.938a1,1,0,1,1,0-1.99,1,1,0,1,1,0,1.99Z" transform="translate(-16.381 -30.999)" fill="#fff"/>
    <path id="Path_220" data-name="Path 220" d="M57.235,37.568a4.8,4.8,0,1,0,4.9,4.8A4.791,4.791,0,0,0,57.235,37.568Zm.216,7.7A2.974,2.974,0,1,1,60.3,42.284,2.978,2.978,0,0,1,57.451,45.266Z" transform="translate(-35.349 -25.277)" fill="#fff"/>
    <path id="Path_221" data-name="Path 221" d="M38.925,33.058a6.082,6.082,0,0,1,3.764-1.595,13.668,13.668,0,0,0-5.35-1.115,14.821,14.821,0,0,0-6.1,1.088,6.125,6.125,0,0,1,5.771,5.235A6.1,6.1,0,0,1,38.925,33.058Z" transform="translate(-21.02 -20.418)" fill="#fff"/>
  </g>
</svg>
