<svg id="youtube-logotype" xmlns="http://www.w3.org/2000/svg" width="51.432" height="51.433" viewBox="0 0 51.432 51.433">
  <g id="Group_35" data-name="Group 35">
    <path id="Path_209" data-name="Path 209" d="M25.676,50.854h2.039V61.89h1.929V50.854h2.077V49.047H25.676Z" transform="translate(-12.166 -23.24)" fill="#bd8880"/>
    <path id="Path_210" data-name="Path 210" d="M53.5,52.2a2.347,2.347,0,0,0-1.792,1.038V49.046H49.973V61.889h1.734v-.927A2.364,2.364,0,0,0,53.5,62.021a1.372,1.372,0,0,0,1.385-1.075,7.618,7.618,0,0,0,.176-1.928V55.207a7.35,7.35,0,0,0-.176-1.923A1.372,1.372,0,0,0,53.5,52.2Zm-.174,6.95c0,.865-.254,1.291-.755,1.291a1.237,1.237,0,0,1-.864-.427V54.186a1.245,1.245,0,0,1,.864-.423c.5,0,.755.443.755,1.306Z" transform="translate(-23.679 -23.24)" fill="#bd8880"/>
    <path id="Path_211" data-name="Path 211" d="M40.9,62.581c-.385.544-.748.811-1.1.811-.232,0-.364-.136-.406-.406a5.357,5.357,0,0,1-.016-.674V55.268H37.643v7.566a4.879,4.879,0,0,0,.153,1.423,1.065,1.065,0,0,0,1.117.712A2.778,2.778,0,0,0,40.9,63.794v1.044H42.63v-9.57H40.9Z" transform="translate(-17.837 -26.188)" fill="#bd8880"/>
    <path id="Path_212" data-name="Path 212" d="M45.9,32.387c.565,0,.836-.448.836-1.342V26.977c0-.9-.271-1.341-.836-1.341s-.837.446-.837,1.341v4.068C45.063,31.939,45.335,32.387,45.9,32.387Z" transform="translate(-21.353 -12.147)" fill="#bd8880"/>
    <path id="Path_213" data-name="Path 213" d="M25.716,0A25.716,25.716,0,1,0,51.432,25.716,25.716,25.716,0,0,0,25.716,0Zm2.86,12.028h1.747v7.12a4.126,4.126,0,0,0,.021.681c.038.272.176.41.411.41.35,0,.718-.272,1.107-.82V12.028h1.752V21.7H31.863V20.644a2.813,2.813,0,0,1-2,1.188,1.076,1.076,0,0,1-1.129-.718,4.887,4.887,0,0,1-.155-1.438V12.028Zm-6.618,3.153a3.758,3.758,0,0,1,.548-2.278,2.6,2.6,0,0,1,4.085,0,3.8,3.8,0,0,1,.543,2.278v3.386a3.785,3.785,0,0,1-.543,2.274,2.6,2.6,0,0,1-4.085,0,3.746,3.746,0,0,1-.548-2.274Zm-4.686-6.46,1.38,5.1,1.325-5.1h1.965L19.6,16.443V21.7H17.662V16.443a31.961,31.961,0,0,0-1.189-4.106c-.409-1.2-.836-2.412-1.245-3.616h2.044ZM39.56,39.495a3.625,3.625,0,0,1-3.1,2.819,96.377,96.377,0,0,1-10.744.4,96.372,96.372,0,0,1-10.744-.4,3.623,3.623,0,0,1-3.1-2.819,30.7,30.7,0,0,1-.5-6.782,30.732,30.732,0,0,1,.506-6.782,3.622,3.622,0,0,1,3.1-2.819,96.384,96.384,0,0,1,10.745-.4,96.375,96.375,0,0,1,10.744.4,3.626,3.626,0,0,1,3.1,2.819,30.792,30.792,0,0,1,.5,6.782A30.7,30.7,0,0,1,39.56,39.495Z" fill="#bd8880"/>
    <path id="Path_214" data-name="Path 214" d="M64.817,55.046a2.463,2.463,0,0,0-2.077.981,3.731,3.731,0,0,0-.536,2.255v3.352a3.694,3.694,0,0,0,.557,2.25,2.481,2.481,0,0,0,2.1.98,2.4,2.4,0,0,0,2.1-1.038,2.469,2.469,0,0,0,.405-1.039c.016-.174.037-.558.037-1.118v-.252H65.63a11.354,11.354,0,0,1-.038,1.174.745.745,0,0,1-.775.7c-.6,0-.887-.442-.887-1.327v-1.7H67.4V58.28a3.761,3.761,0,0,0-.537-2.255A2.407,2.407,0,0,0,64.817,55.046Zm.848,3.774H63.931v-.886q0-1.328.87-1.328c.574,0,.864.443.864,1.328Z" transform="translate(-29.475 -26.083)" fill="#bd8880"/>
  </g>
</svg>
